<svg width="80" height="80" viewBox="0 0 80 80" fill="none" xmlns="http://www.w3.org/2000/svg">
<circle cx="40" cy="40" r="38.5" stroke="#4E697C" stroke-width="3"/>
<path fill-rule="evenodd" clip-rule="evenodd" d="M52.7279 27.7279C52.3374 27.3374 51.7042 27.3374 51.3137 27.7279L40 39.0416L28.6863 27.7279C28.2958 27.3374 27.6626 27.3374 27.2721 27.7279C26.8816 28.1184 26.8816 28.7516 27.2721 29.1421L38.5858 40.4558L27.2721 51.7696C26.8816 52.1601 26.8816 52.7932 27.2721 53.1838C27.6626 53.5743 28.2958 53.5743 28.6863 53.1838L40 41.8701L51.3137 53.1838C51.7042 53.5743 52.3374 53.5743 52.7279 53.1838C53.1184 52.7932 53.1184 52.1601 52.7279 51.7696L41.4142 40.4558L52.7279 29.1421C53.1184 28.7516 53.1184 28.1184 52.7279 27.7279Z" fill="#4E697C"/>
<path d="M40 39.0416L39.2929 39.7487L40 40.4558L40.7071 39.7487L40 39.0416ZM38.5858 40.4558L39.2929 41.1629L40 40.4558L39.2929 39.7487L38.5858 40.4558ZM40 41.8701L40.7071 41.163L40 40.4558L39.2929 41.163L40 41.8701ZM41.4142 40.4558L40.7071 39.7487L40 40.4558L40.7071 41.163L41.4142 40.4558ZM52.0208 28.435L52.0208 28.435L53.435 27.0208C52.654 26.2398 51.3876 26.2398 50.6066 27.0208L52.0208 28.435ZM40.7071 39.7487L52.0208 28.435L50.6066 27.0208L39.2929 38.3345L40.7071 39.7487ZM27.9792 28.435L39.2929 39.7487L40.7071 38.3345L29.3934 27.0208L27.9792 28.435ZM27.9792 28.435L29.3934 27.0208C28.6124 26.2398 27.346 26.2398 26.565 27.0208L27.9792 28.435ZM27.9792 28.435L27.9792 28.435L26.565 27.0208C25.7839 27.8019 25.7839 29.0682 26.565 29.8492L27.9792 28.435ZM39.2929 39.7487L27.9792 28.435L26.565 29.8492L37.8787 41.1629L39.2929 39.7487ZM27.9792 52.4767L39.2929 41.1629L37.8787 39.7487L26.565 51.0624L27.9792 52.4767ZM27.9792 52.4767L26.565 51.0624C25.7839 51.8435 25.7839 53.1098 26.565 53.8909L27.9792 52.4767ZM27.9792 52.4767L26.565 53.8909C27.346 54.6719 28.6124 54.6719 29.3934 53.8909L27.9792 52.4767ZM39.2929 41.163L27.9792 52.4767L29.3934 53.8909L40.7071 42.5772L39.2929 41.163ZM52.0208 52.4767L40.7071 41.163L39.2929 42.5772L50.6066 53.8909L52.0208 52.4767ZM52.0208 52.4767L50.6066 53.8909C51.3876 54.6719 52.654 54.6719 53.435 53.8909L52.0208 52.4767ZM52.0208 52.4767L53.435 53.8909C54.2161 53.1098 54.2161 51.8435 53.435 51.0624L52.0208 52.4767ZM40.7071 41.163L52.0208 52.4767L53.435 51.0624L42.1213 39.7487L40.7071 41.163ZM52.0208 28.435L40.7071 39.7487L42.1213 41.163L53.435 29.8492L52.0208 28.435ZM52.0208 28.435L53.435 29.8492C54.2161 29.0682 54.2161 27.8019 53.435 27.0208L52.0208 28.435Z" fill="#4E697C"/>
</svg>
