<svg width="50" height="50" viewBox="0 0 50 50" fill="none" xmlns="http://www.w3.org/2000/svg">
<path d="M11.1445 0H11.8213C12.8818 0.0664062 13.8213 0.950195 13.9121 2.01562C13.9531 2.71973 13.918 3.42578 13.9287 4.13086C13.4346 4.16602 12.9375 4.16602 12.4434 4.13086C12.4356 3.50098 12.459 2.87012 12.4365 2.24121C12.4404 1.88281 12.1553 1.55371 11.8027 1.50195C11.4414 1.45508 10.9981 1.44727 10.7432 1.75488C10.5703 1.93848 10.5508 2.20215 10.5518 2.44141C10.5518 2.99902 10.5566 3.55664 10.5537 4.11523C10.5586 5.08887 10.5469 6.06348 10.5576 7.03711C10.543 7.38476 10.7822 7.75 11.1406 7.80078C11.3828 7.86914 11.6719 7.8623 11.8535 8.06152C12.1602 8.35352 12.1309 8.90137 11.7969 9.16113C11.5752 9.35547 11.2637 9.32617 10.9902 9.32324C9.94727 9.13867 9.07129 8.20703 9.07227 7.12695C9.0586 6.13867 9.07324 5.15039 9.06739 4.16211V4.1084C9.08301 3.3877 9.03418 2.66406 9.09375 1.94531C9.21192 0.918945 10.1231 0.0859375 11.1445 0Z" fill="#554E56"/>
<path d="M38.1611 0H38.8086C39.8486 0.0576172 40.7842 0.90332 40.9053 1.94336C40.9668 2.66895 40.916 3.39746 40.9336 4.125C40.4365 4.14844 39.9394 4.14746 39.4433 4.12891C39.4404 3.49805 39.459 2.86719 39.4394 2.2373C39.4414 1.86523 39.1318 1.53027 38.7637 1.49512C38.4228 1.46191 38.0166 1.45313 37.7685 1.73145C37.5771 1.91309 37.5537 2.18945 37.5547 2.43848C37.5537 2.99707 37.5586 3.55566 37.5566 4.11426C37.5566 5.02246 37.5586 5.93066 37.5537 6.83887C37.5566 7.09277 37.5605 7.37891 37.748 7.5752C38.0264 7.93848 38.5967 7.74023 38.8828 8.09082C39.1543 8.37793 39.126 8.87793 38.8281 9.13574C38.6201 9.3418 38.3096 9.33008 38.0391 9.32715C37.0039 9.1709 36.1182 8.27442 36.0791 7.21191C36.0586 6.19629 36.0781 5.18066 36.0703 4.16504V4.1084C36.082 3.40332 36.0459 2.69727 36.0889 1.99316C36.1894 0.943359 37.1152 0.0771484 38.1611 0Z" fill="#554E56"/>
<path d="M4.11432 4.706C4.66706 4.28998 5.36628 4.09955 6.05378 4.11323C7.05866 4.12104 8.06256 4.10248 9.06745 4.10834V4.16205C8.58307 4.1474 8.09772 4.14741 7.61335 4.16108C7.59967 4.95405 7.61432 5.74701 7.60553 6.53998C7.60749 6.96088 7.58991 7.39447 7.73053 7.79682C7.98444 8.55365 8.66803 9.15619 9.45905 9.28705C9.96491 9.37201 10.4805 9.31147 10.9903 9.32319C11.2637 9.32612 11.5753 9.35541 11.7969 9.16108C12.1309 8.90131 12.1602 8.35346 11.8536 8.06147C11.6719 7.86225 11.3829 7.86908 11.1407 7.80072C10.7823 7.74994 10.543 7.38471 10.5577 7.03705C10.5469 6.06342 10.5587 5.08881 10.5538 4.11518C11.1837 4.12104 11.8145 4.0976 12.4434 4.1308C12.9376 4.16596 13.4346 4.16596 13.9288 4.1308C15.6329 4.09369 17.338 4.12494 19.0421 4.1142C24.7178 4.11127 30.3946 4.12104 36.0704 4.10834V4.16498C35.5889 4.14838 35.1065 4.1474 34.6251 4.15717C34.5977 5.15033 34.6085 6.1435 34.6163 7.13666C34.628 8.02143 35.2217 8.85541 36.045 9.17084C36.6807 9.41889 37.3751 9.30366 38.0391 9.32709C38.3096 9.33002 38.6202 9.34174 38.8282 9.13569C39.126 8.87787 39.1544 8.37787 38.8829 8.09076C38.5967 7.74018 38.0264 7.93842 37.7481 7.57514C37.5606 7.37885 37.5567 7.09272 37.5538 6.83881C37.5587 5.93061 37.5567 5.02241 37.5567 4.1142C38.1856 4.12104 38.8145 4.09858 39.4434 4.12885C40.2286 4.19428 41.0137 4.10053 41.7989 4.11323C42.5479 4.11713 43.296 4.11225 44.045 4.1142C44.6973 4.11811 45.3585 4.30854 45.8829 4.70405C46.6485 5.25483 47.1143 6.18744 47.1007 7.1308C47.1046 9.67377 47.1133 12.2177 47.0958 14.7607C32.3653 14.7578 17.6348 14.7568 2.90436 14.7607C2.88678 12.2167 2.89557 9.67084 2.89948 7.12592C2.88483 6.18451 3.3526 5.25776 4.11432 4.706Z" fill="#E4BD94"/>
<path d="M7.61328 4.16126C8.09766 4.14759 8.58301 4.14759 9.06738 4.16223C9.07324 5.15052 9.05859 6.1388 9.07227 7.12708C9.07129 8.20716 9.94727 9.1388 10.9902 9.32337C10.4805 9.31165 9.96484 9.37219 9.45898 9.28723C8.66797 9.15637 7.98438 8.55384 7.73047 7.797C7.58984 7.39466 7.60742 6.96106 7.60547 6.54016C7.61426 5.7472 7.59961 4.95423 7.61328 4.16126Z" fill="#D0A06C"/>
<path d="M34.625 4.15726C35.1065 4.14749 35.5889 4.14847 36.0703 4.16507C36.0781 5.1807 36.0586 6.19632 36.0791 7.21195C36.1182 8.27445 37.0039 9.17093 38.0391 9.32718C37.375 9.30375 36.6807 9.41898 36.0449 9.17093C35.2217 8.8555 34.6279 8.02152 34.6162 7.13675C34.6084 6.14359 34.5977 5.15042 34.625 4.15726Z" fill="#D0A06C"/>
<path d="M2.90421 14.7608C17.6347 14.7568 32.3651 14.7578 47.0956 14.7608C47.078 19.3125 47.0937 23.8643 47.0888 28.416C47.1025 30.6846 47.0595 32.9541 47.1122 35.2207C46.8593 35.8467 46.5185 36.4883 45.9101 36.833C45.4442 37.1279 44.8808 37.1982 44.3398 37.1914C42.9062 37.1826 41.4726 37.1953 40.039 37.1836C39.6015 37.1836 39.1493 37.1973 38.7421 37.374C38.0331 37.666 37.4804 38.3125 37.3163 39.0625C37.2206 39.4795 37.2401 39.9102 37.2401 40.335C37.247 41.668 37.2392 43.002 37.247 44.335C37.2548 44.9121 37.1542 45.5147 36.8026 45.9883C36.4394 46.5313 35.8339 46.8389 35.2314 47.0381C25.831 47.0088 16.4306 47.0342 7.03019 47.0254C6.17862 47.0186 5.26358 47.1201 4.49112 46.6758C3.66495 46.2588 3.14444 45.4287 2.91495 44.5537C2.88468 43.8311 2.90128 43.1065 2.91202 42.3838C2.90616 33.1758 2.92179 23.9688 2.90421 14.7608ZM7.83487 19.2656C7.52726 19.3672 7.35147 19.6953 7.37198 20.0088C7.37198 21.1553 7.36612 22.3027 7.37491 23.4492C7.3544 23.8447 7.70499 24.1963 8.10245 24.1709C9.21085 24.1787 10.3192 24.168 11.4267 24.1758C11.6796 24.1826 11.9638 24.1543 12.1386 23.9473C12.3515 23.7373 12.3241 23.416 12.33 23.1426C12.3163 22.0664 12.3398 20.9902 12.3202 19.9151C12.329 19.543 11.996 19.2178 11.6269 19.2256C10.6151 19.2051 9.60343 19.2285 8.59171 19.2158C8.33976 19.2197 8.08097 19.1992 7.83487 19.2656ZM17.9062 19.2764C17.6083 19.3916 17.4501 19.7149 17.4716 20.0234C17.4667 21.0615 17.4765 22.1006 17.4677 23.1397C17.4745 23.4141 17.4452 23.7344 17.6591 23.9463C17.8544 24.1797 18.1786 24.1797 18.4569 24.1768C19.5585 24.1641 20.661 24.1856 21.7626 24.167C22.1396 24.1641 22.4442 23.8096 22.4237 23.4395C22.4345 22.3633 22.4198 21.2871 22.4306 20.2119C22.4335 19.9307 22.4325 19.6026 22.1952 19.4072C22.0087 19.2168 21.7265 19.2197 21.4804 19.2158C20.4726 19.2197 19.4648 19.2207 18.4569 19.2158C18.2733 19.2217 18.0819 19.2129 17.9062 19.2764ZM28.0497 19.2608C27.7333 19.3594 27.5487 19.6943 27.5732 20.0147C27.5741 21.1563 27.5683 22.2979 27.5751 23.4395C27.5546 23.8067 27.8534 24.1592 28.2274 24.166C29.2987 24.1865 30.371 24.1631 31.4433 24.1768C31.7304 24.169 32.0673 24.2109 32.2939 23.9922C32.5165 23.8106 32.5341 23.5068 32.5312 23.2412C32.5263 22.2002 32.5282 21.1582 32.5302 20.1172C32.5302 19.877 32.5136 19.6084 32.3241 19.4346C32.0487 19.1416 31.6103 19.2334 31.2519 19.2168C30.1855 19.249 29.1103 19.1611 28.0497 19.2608ZM38.1132 19.2754C37.8134 19.3877 37.6503 19.7119 37.6737 20.0215C37.6747 21.1582 37.6679 22.2949 37.6767 23.4317C37.6464 23.8213 37.9833 24.1826 38.3749 24.169C39.5497 24.1777 40.7255 24.1738 41.9003 24.1709C42.2987 24.1943 42.6493 23.8369 42.6259 23.4395C42.6366 22.3662 42.622 21.292 42.6317 20.2178C42.6288 19.9609 42.6425 19.669 42.455 19.4668C42.2978 19.2656 42.0331 19.2149 41.7919 19.2188C40.7509 19.2149 39.7099 19.2236 38.6689 19.2158C38.4833 19.2207 38.2909 19.2119 38.1132 19.2754ZM7.83976 28.458C7.53312 28.5576 7.3505 28.8818 7.37198 29.1963C7.36612 30.2725 7.37589 31.3486 7.36808 32.4258C7.36222 32.6973 7.38272 33.0108 7.61319 33.1953C7.82413 33.3926 8.13077 33.3701 8.39737 33.375C9.47355 33.3633 10.5497 33.3838 11.6249 33.3662C12.0204 33.376 12.3544 33.0108 12.3232 32.6182C12.3339 31.544 12.3192 30.4688 12.33 29.3945C12.33 29.124 12.3339 28.8076 12.1093 28.6143C11.8251 28.334 11.3935 28.4356 11.0341 28.416C9.97062 28.4473 8.89835 28.3623 7.83976 28.458ZM17.9862 28.4453C17.6532 28.5244 17.4462 28.8691 17.4735 29.2012C17.4657 30.2764 17.4765 31.3516 17.4687 32.4258C17.4667 32.6914 17.4784 32.9981 17.7011 33.1826C17.9267 33.4053 18.2646 33.3692 18.5556 33.375C19.6015 33.3633 20.6474 33.3818 21.6933 33.3672C22.0644 33.3877 22.415 33.0781 22.4189 32.7031C22.4413 31.6328 22.4159 30.5625 22.4306 29.4932C22.4237 29.2041 22.4608 28.8662 22.2372 28.6426C21.9755 28.3418 21.5429 28.4297 21.1903 28.416C20.123 28.4395 19.0517 28.3789 17.9862 28.4453ZM28.0585 28.4531C27.7441 28.544 27.5526 28.8731 27.5732 29.1914C27.5683 30.2695 27.5771 31.3486 27.5702 32.4268C27.5692 32.6826 27.5751 32.9746 27.7792 33.1611C27.9911 33.3936 28.3261 33.3721 28.6122 33.375C29.6894 33.3623 30.7665 33.3857 31.8437 33.3652C32.2314 33.3672 32.5526 33.0059 32.5243 32.6221C32.538 31.5772 32.5204 30.5322 32.5321 29.4873C32.5263 29.1895 32.5585 28.8369 32.3134 28.6182C32.036 28.334 31.6064 28.4346 31.2519 28.416C30.1884 28.4443 29.1181 28.3691 28.0585 28.4531ZM38.2157 28.6611C37.8817 28.7236 37.6542 29.0606 37.6757 29.3936C37.6747 30.5664 37.664 31.7402 37.6806 32.9131C37.6747 33.3203 38.0741 33.6299 38.4667 33.5928C39.6122 33.5918 40.7587 33.6016 41.9052 33.5879C42.2763 33.6035 42.622 33.2891 42.621 32.9141C42.6435 31.8399 42.6181 30.7637 42.6317 29.6895C42.6278 29.4053 42.6552 29.0752 42.4345 28.8584C42.2021 28.5908 41.8212 28.6426 41.5058 28.6367C40.4091 28.6592 39.3095 28.6074 38.2157 28.6611ZM7.93351 37.6299C7.58683 37.6856 7.3505 38.0322 7.37198 38.374C7.3671 39.4844 7.37394 40.5947 7.36905 41.7061C7.36319 41.9512 7.40812 42.2236 7.61222 42.3867C7.82413 42.5908 8.13468 42.5635 8.40519 42.5684C9.47843 42.5557 10.5517 42.5772 11.6239 42.5596C11.9843 42.5713 12.3163 42.2598 12.3173 41.8984C12.3427 40.8223 12.3144 39.7461 12.33 38.6709C12.3271 38.3701 12.3534 38.0117 12.0985 37.7988C11.8681 37.5693 11.5214 37.6152 11.2265 37.6074C10.1298 37.6289 9.02921 37.5811 7.93351 37.6299ZM17.996 37.6367C17.6698 37.7119 17.4501 38.0449 17.4735 38.374C17.4648 39.4502 17.4775 40.5273 17.4687 41.6035C17.4677 41.8711 17.4706 42.1807 17.6933 42.3711C17.8905 42.5742 18.1903 42.5664 18.4511 42.5684C19.5302 42.5576 20.6093 42.5732 21.6874 42.5615C22.0556 42.584 22.412 42.2813 22.4179 41.9072C22.4433 40.8311 22.4159 39.7539 22.4306 38.6777C22.4237 38.3887 22.4599 38.0488 22.2294 37.8291C21.9667 37.5381 21.5409 37.6221 21.1923 37.6084C20.1269 37.6318 19.0585 37.5723 17.996 37.6367ZM28.0624 37.6465C27.7509 37.7354 27.5546 38.0586 27.5741 38.375C27.5712 39.5195 27.5702 40.665 27.5751 41.8096C27.5419 42.2178 27.9003 42.5908 28.3114 42.5625C29.4872 42.5654 30.664 42.5723 31.8398 42.5586C32.2343 42.5664 32.5575 42.1924 32.5253 41.8047C32.536 40.7607 32.5214 39.7168 32.5312 38.6729C32.5263 38.3779 32.5575 38.0283 32.3134 37.8125C32.0351 37.5303 31.6083 37.626 31.2538 37.6084C30.1903 37.6377 29.121 37.5596 28.0624 37.6465Z" fill="#F9F3F1"/>
<path d="M7.83517 19.2657C8.08126 19.1993 8.34005 19.2198 8.592 19.2159C9.60372 19.2286 10.6154 19.2052 11.6272 19.2257C11.9963 19.2179 12.3293 19.5431 12.3205 19.9151C12.34 20.9903 12.3166 22.0665 12.3303 23.1427C12.3244 23.4161 12.3518 23.7374 12.1389 23.9474C11.9641 24.1544 11.6799 24.1827 11.427 24.1759C10.3195 24.1681 9.21114 24.1788 8.10274 24.171C7.70528 24.1964 7.3547 23.8448 7.3752 23.4493C7.36642 22.3028 7.37227 21.1554 7.37227 20.0089C7.35177 19.6954 7.52755 19.3673 7.83517 19.2657Z" fill="#E4BD94"/>
<path d="M17.9063 19.2764C18.082 19.2129 18.2734 19.2217 18.457 19.2158C19.4648 19.2207 20.4727 19.2197 21.4805 19.2158C21.7266 19.2197 22.0088 19.2168 22.1953 19.4072C22.4326 19.6025 22.4336 19.9307 22.4307 20.2119C22.4199 21.2871 22.4346 22.3633 22.4238 23.4395C22.4443 23.8096 22.1396 24.1641 21.7627 24.167C20.6611 24.1855 19.5586 24.1641 18.457 24.1768C18.1787 24.1797 17.8545 24.1797 17.6592 23.9463C17.4453 23.7344 17.4746 23.4141 17.4678 23.1396C17.4766 22.1006 17.4668 21.0615 17.4717 20.0234C17.4502 19.7148 17.6084 19.3916 17.9063 19.2764Z" fill="#E4BD94"/>
<path d="M28.0498 19.2608C29.1103 19.1612 30.1855 19.2491 31.2519 19.2168C31.6103 19.2334 32.0488 19.1416 32.3242 19.4346C32.5136 19.6084 32.5302 19.877 32.5302 20.1172C32.5283 21.1582 32.5263 22.2002 32.5312 23.2413C32.5341 23.5069 32.5166 23.8106 32.2939 23.9922C32.0673 24.211 31.7304 24.169 31.4433 24.1768C30.3711 24.1631 29.2988 24.1866 28.2275 24.1661C27.8535 24.1592 27.5546 23.8067 27.5752 23.4395C27.5683 22.2979 27.5742 21.1563 27.5732 20.0147C27.5488 19.6944 27.7334 19.3594 28.0498 19.2608Z" fill="#E4BD94"/>
<path d="M38.1133 19.2754C38.291 19.2119 38.4834 19.2207 38.669 19.2158C39.71 19.2236 40.751 19.2148 41.792 19.2187C42.0332 19.2148 42.2979 19.2656 42.4551 19.4668C42.6426 19.6689 42.6289 19.9609 42.6319 20.2178C42.6221 21.292 42.6367 22.3662 42.626 23.4395C42.6494 23.8369 42.2989 24.1943 41.9004 24.1709C40.7256 24.1738 39.5498 24.1777 38.375 24.1689C37.9834 24.1826 37.6465 23.8213 37.6768 23.4316C37.668 22.2949 37.6748 21.1582 37.6739 20.0215C37.6504 19.7119 37.8135 19.3877 38.1133 19.2754Z" fill="#E4BD94"/>
<path d="M7.83992 28.458C8.89852 28.3623 9.97078 28.4473 11.0343 28.416C11.3936 28.4356 11.8253 28.334 12.1095 28.6143C12.3341 28.8076 12.3302 29.1241 12.3302 29.3946C12.3194 30.4688 12.3341 31.544 12.3233 32.6182C12.3546 33.0108 12.0206 33.376 11.6251 33.3662C10.5499 33.3838 9.47371 33.3633 8.39754 33.375C8.13094 33.3702 7.8243 33.3926 7.61336 33.1953C7.38289 33.0108 7.36238 32.6973 7.36824 32.4258C7.37605 31.3487 7.36629 30.2725 7.37215 29.1963C7.35066 28.8819 7.53328 28.5576 7.83992 28.458Z" fill="#E4BD94"/>
<path d="M17.9865 28.4454C19.0519 28.379 20.1232 28.4395 21.1906 28.4161C21.5431 28.4297 21.9758 28.3419 22.2375 28.6426C22.4611 28.8663 22.424 29.2042 22.4308 29.4932C22.4162 30.5626 22.4416 31.6329 22.4191 32.7032C22.4152 33.0782 22.0646 33.3877 21.6935 33.3672C20.6476 33.3819 19.6017 33.3633 18.5558 33.3751C18.2648 33.3692 17.9269 33.4053 17.7013 33.1827C17.4787 32.9981 17.467 32.6915 17.4689 32.4258C17.4767 31.3516 17.466 30.2764 17.4738 29.2012C17.4465 28.8692 17.6535 28.5245 17.9865 28.4454Z" fill="#E4BD94"/>
<path d="M28.0587 28.4532C29.1182 28.3692 30.1886 28.4444 31.252 28.4161C31.6065 28.4346 32.0362 28.3341 32.3136 28.6182C32.5587 28.837 32.5265 29.1895 32.5323 29.4874C32.5206 30.5323 32.5382 31.5772 32.5245 32.6221C32.5528 33.0059 32.2315 33.3673 31.8438 33.3653C30.7667 33.3858 29.6895 33.3624 28.6124 33.3751C28.3262 33.3721 27.9913 33.3936 27.7794 33.1612C27.5753 32.9747 27.5694 32.6827 27.5704 32.4268C27.5772 31.3487 27.5684 30.2696 27.5733 29.1915C27.5528 28.8731 27.7442 28.544 28.0587 28.4532Z" fill="#E4BD94"/>
<path d="M38.216 28.6611C39.3097 28.6074 40.4093 28.6592 41.506 28.6367C41.8215 28.6426 42.2023 28.5908 42.4347 28.8584C42.6554 29.0752 42.6281 29.4053 42.632 29.6895C42.6183 30.7637 42.6437 31.8399 42.6213 32.9141C42.6222 33.2891 42.2765 33.6035 41.9054 33.5879C40.759 33.6016 39.6125 33.5918 38.467 33.5928C38.0744 33.6299 37.675 33.3203 37.6808 32.9131C37.6642 31.7402 37.675 30.5664 37.6759 29.3936C37.6545 29.0606 37.882 28.7236 38.216 28.6611Z" fill="#E4BD94"/>
<path d="M7.93359 37.6298C9.0293 37.581 10.1299 37.6289 11.2266 37.6074C11.5215 37.6152 11.8682 37.5693 12.0986 37.7988C12.3535 38.0117 12.3271 38.3701 12.3301 38.6708C12.3145 39.746 12.3428 40.8222 12.3174 41.8984C12.3164 42.2597 11.9844 42.5712 11.624 42.5595C10.5518 42.5771 9.47852 42.5556 8.40527 42.5683C8.13477 42.5634 7.82422 42.5908 7.6123 42.3867C7.4082 42.2236 7.36328 41.9511 7.36914 41.706C7.37402 40.5947 7.36719 39.4843 7.37207 38.374C7.35059 38.0322 7.58691 37.6855 7.93359 37.6298Z" fill="#E4BD94"/>
<path d="M17.9962 37.6368C19.0587 37.5724 20.127 37.6319 21.1925 37.6085C21.5411 37.6222 21.9669 37.5382 22.2296 37.8292C22.46 38.0489 22.4239 38.3888 22.4308 38.6778C22.4161 39.754 22.4434 40.8312 22.4181 41.9073C22.4122 42.2814 22.0558 42.5841 21.6876 42.5616C20.6095 42.5733 19.5304 42.5577 18.4513 42.5685C18.1905 42.5665 17.8907 42.5743 17.6934 42.3712C17.4708 42.1808 17.4679 41.8712 17.4688 41.6036C17.4776 40.5274 17.4649 39.4503 17.4737 38.3741C17.4503 38.045 17.67 37.712 17.9962 37.6368Z" fill="#E4BD94"/>
<path d="M28.0625 37.6466C29.1211 37.5596 30.1904 37.6378 31.2539 37.6085C31.6084 37.626 32.0352 37.5303 32.3135 37.8126C32.5576 38.0284 32.5264 38.378 32.5312 38.6729C32.5215 39.7169 32.5361 40.7608 32.5254 41.8048C32.5576 42.1925 32.2344 42.5665 31.8398 42.5587C30.6641 42.5723 29.4873 42.5655 28.3115 42.5626C27.9004 42.5909 27.542 42.2178 27.5752 41.8096C27.5703 40.6651 27.5713 39.5196 27.5742 38.3751C27.5547 38.0587 27.751 37.7354 28.0625 37.6466Z" fill="#E4BD94"/>
<path d="M45.9102 36.833C46.5186 36.4883 46.8594 35.8467 47.1123 35.2207C47.125 35.6387 47.1045 36.0557 47.085 36.4727C46.8975 37.0625 46.6416 37.6494 46.1885 38.0859C43.5059 40.7754 40.8193 43.4609 38.1299 46.1436C37.3848 46.9053 36.2627 47.1484 35.2314 47.0381C35.834 46.8389 36.4395 46.5313 36.8027 45.9883C37.1543 45.5147 37.2549 44.9121 37.2471 44.335C37.2393 43.002 37.2471 41.668 37.2402 40.335C37.2402 39.9102 37.2207 39.4795 37.3164 39.0625C37.4805 38.3125 38.0332 37.666 38.7422 37.374C39.1494 37.1973 39.6016 37.1836 40.0391 37.1836C41.4727 37.1953 42.9063 37.1826 44.3399 37.1914C44.8809 37.1982 45.4443 37.1279 45.9102 36.833Z" fill="#EFE2DD"/>
<path d="M46.1884 38.0859C46.6415 37.6494 46.8973 37.0625 47.0848 36.4727C47.0946 39.8125 47.0849 43.1514 47.0897 46.4912C47.1015 47.0908 47.0858 47.7148 46.8153 48.2646C46.3778 49.249 45.372 49.9258 44.3016 50H5.81825C4.37978 49.9912 3.06532 48.8037 2.93446 47.3672C2.88271 46.4307 2.92275 45.4912 2.91493 44.5537C3.14443 45.4287 3.66493 46.2588 4.4911 46.6758C5.26357 47.1201 6.1786 47.0186 7.03017 47.0254C16.4306 47.0342 25.8309 47.0088 35.2313 47.0381C36.2626 47.1484 37.3847 46.9053 38.1298 46.1436C40.8192 43.4609 43.5057 40.7754 46.1884 38.0859Z" fill="#CDBFBA"/>
</svg>
