<svg width="65" height="65" viewBox="0 0 65 65" fill="none" xmlns="http://www.w3.org/2000/svg">
<path d="M31.6977 0H33.2884C38.6255 0.143457 43.9385 1.57676 48.5685 4.25039C54.6406 7.69336 59.5474 13.1523 62.3162 19.5609C64.0377 23.4863 64.9302 27.7608 65 32.0417V33.2757C64.8718 37.8612 63.8041 42.4265 61.8059 46.5613C59.6667 50.9933 56.5208 54.9402 52.6538 57.9871C48.8414 61.0175 44.3384 63.1782 39.5789 64.223C37.5185 64.6991 35.4072 64.9162 33.2973 65H31.7205C26.5332 64.8616 21.3802 63.4918 16.8353 60.9781C12.0453 58.3324 7.93076 54.4654 5.01338 49.8329C1.87256 44.9173 0.154883 39.1308 0 33.3049V31.7091C0.104102 28.2268 0.728711 24.7546 1.91699 21.4767C4.3126 14.8065 8.96797 8.97559 14.9398 5.15937C19.9037 1.92334 25.7829 0.159961 31.6977 0ZM32.6244 17.1222C31.3346 17.7709 30.3139 18.9021 29.7464 20.2236C29.2271 21.4106 29.0532 22.717 29.052 24.003C29.0481 25.3855 29.052 26.7668 29.0494 28.1493C27.3876 28.1493 25.7245 28.148 24.0627 28.1506C24.0614 30.0739 24.0614 31.9973 24.0627 33.9219C25.7245 33.9231 27.3876 33.9206 29.0507 33.9219C29.052 38.8642 29.0494 43.8064 29.0507 48.7487C31.04 48.75 33.0281 48.75 35.0175 48.7487C35.0175 43.8064 35.0162 38.8642 35.0175 33.9219C36.6755 33.9206 38.3335 33.9231 39.9928 33.9206C40.2429 31.9973 40.4904 30.0739 40.738 28.1506C38.8312 28.148 36.9243 28.1506 35.0175 28.1493C35.02 26.8519 35.0086 25.5557 35.0238 24.2595C35.034 23.5752 35.1444 22.8224 35.651 22.3184C36.188 21.7902 36.9827 21.6709 37.7038 21.6519C38.7829 21.6468 39.8607 21.6531 40.9398 21.6404C40.9398 19.9189 40.9411 18.1987 40.9398 16.4785C39.485 16.3147 38.0212 16.264 36.5587 16.2525C35.2054 16.2475 33.8292 16.4887 32.6244 17.1222Z" fill="#3B5998"/>
</svg>
