<svg width="65" height="65" viewBox="0 0 65 65" fill="none" xmlns="http://www.w3.org/2000/svg">
<path d="M32.5 65C14.5535 65 0 50.4465 0 32.5C0 14.5535 14.5535 0 32.5 0C50.4465 0 65 14.5535 65 32.5C65 50.4465 50.4465 65 32.5 65Z" fill="url(#paint0_linear_1123_5431)"/>
<path d="M32.5001 14.3129C38.4216 14.3129 39.1236 14.3324 41.4636 14.4429C43.6281 14.5404 44.8046 14.9044 45.5846 15.2099C46.6181 15.6129 47.3591 16.0939 48.1326 16.8674C48.9061 17.6409 49.3871 18.3819 49.7901 19.4154C50.0956 20.1954 50.4531 21.3719 50.5571 23.5364C50.6611 25.8764 50.6871 26.5784 50.6871 32.4999C50.6871 38.4214 50.6676 39.1234 50.5571 41.4634C50.4596 43.6279 50.0956 44.8044 49.7901 45.5844C49.3871 46.6179 48.9061 47.3589 48.1326 48.1324C47.3591 48.9059 46.6181 49.3869 45.5846 49.7899C44.8046 50.0954 43.6281 50.4529 41.4636 50.5569C39.1236 50.6609 38.4216 50.6869 32.5001 50.6869C26.5786 50.6869 25.8766 50.6674 23.5366 50.5569C21.3721 50.4594 20.1956 50.0954 19.4156 49.7899C18.3821 49.3869 17.6411 48.9059 16.8676 48.1324C16.0941 47.3589 15.6131 46.6179 15.2101 45.5844C14.9046 44.8044 14.5471 43.6279 14.4431 41.4634C14.3391 39.1234 14.3131 38.4214 14.3131 32.4999C14.3131 26.5784 14.3326 25.8764 14.4431 23.5364C14.5406 21.3719 14.9046 20.1954 15.2101 19.4154C15.6131 18.3819 16.0941 17.6409 16.8676 16.8674C17.6411 16.0939 18.3821 15.6129 19.4156 15.2099C20.1956 14.9044 21.3721 14.5469 23.5366 14.4429C25.8766 14.3324 26.5786 14.3129 32.5001 14.3129ZM32.5001 10.3154C26.4746 10.3154 25.7206 10.3414 23.3546 10.4519C20.9951 10.5624 19.3831 10.9329 17.9661 11.4854C16.5101 12.0444 15.2686 12.8049 14.0401 14.0399C12.8051 15.2749 12.0511 16.5099 11.4791 17.9724C10.9331 19.3829 10.5561 20.9949 10.4456 23.3609C10.3351 25.7269 10.3091 26.4809 10.3091 32.5064C10.3091 38.5319 10.3351 39.2859 10.4456 41.6519C10.5561 44.0114 10.9266 45.6234 11.4791 47.0404C12.0446 48.4899 12.8051 49.7314 14.0401 50.9599C15.2751 52.1949 16.5101 52.9489 17.9726 53.5209C19.3831 54.0669 20.9951 54.4439 23.3611 54.5544C25.7271 54.6649 26.4811 54.6909 32.5066 54.6909C38.5321 54.6909 39.2861 54.6649 41.6521 54.5544C44.0116 54.4439 45.6236 54.0734 47.0406 53.5209C48.4901 52.9554 49.7316 52.1949 50.9601 50.9599C52.1951 49.7249 52.9491 48.4899 53.5211 47.0274C54.0671 45.6169 54.4441 44.0049 54.5546 41.6389C54.6651 39.2729 54.6911 38.5189 54.6911 32.4934C54.6911 26.4679 54.6651 25.7139 54.5546 23.3479C54.4441 20.9884 54.0736 19.3764 53.5211 17.9594C52.9556 16.5099 52.1951 15.2684 50.9601 14.0399C49.7251 12.8049 48.4901 12.0509 47.0276 11.4789C45.6171 10.9329 44.0051 10.5559 41.6391 10.4454C39.2796 10.3414 38.5256 10.3154 32.5001 10.3154Z" fill="white"/>
<path d="M32.5 21.1055C26.208 21.1055 21.1055 26.208 21.1055 32.5C21.1055 38.792 26.208 43.8945 32.5 43.8945C38.792 43.8945 43.8945 38.792 43.8945 32.5C43.8945 26.208 38.792 21.1055 32.5 21.1055ZM32.5 39.897C28.418 39.897 25.103 36.5885 25.103 32.5C25.103 28.4115 28.418 25.103 32.5 25.103C36.582 25.103 39.897 28.4115 39.897 32.5C39.897 36.5885 36.582 39.897 32.5 39.897Z" fill="white"/>
<path d="M44.343 23.3219C45.8148 23.3219 47.008 22.1288 47.008 20.6569C47.008 19.1851 45.8148 17.9919 44.343 17.9919C42.8711 17.9919 41.678 19.1851 41.678 20.6569C41.678 22.1288 42.8711 23.3219 44.343 23.3219Z" fill="white"/>
<defs>
<linearGradient id="paint0_linear_1123_5431" x1="9.51902" y1="55.481" x2="55.481" y2="9.51902" gradientUnits="userSpaceOnUse">
<stop stop-color="#FFD521"/>
<stop offset="0.0551048" stop-color="#FFD020"/>
<stop offset="0.1241" stop-color="#FEC01E"/>
<stop offset="0.2004" stop-color="#FCA71B"/>
<stop offset="0.2821" stop-color="#FA8316"/>
<stop offset="0.3681" stop-color="#F85510"/>
<stop offset="0.4563" stop-color="#F51E09"/>
<stop offset="0.5" stop-color="#F30005"/>
<stop offset="0.5035" stop-color="#F20007"/>
<stop offset="0.5966" stop-color="#E1003B"/>
<stop offset="0.6879" stop-color="#D30067"/>
<stop offset="0.7757" stop-color="#C70088"/>
<stop offset="0.8589" stop-color="#BF00A0"/>
<stop offset="0.9357" stop-color="#BB00AF"/>
<stop offset="1" stop-color="#B900B4"/>
</linearGradient>
</defs>
</svg>
