<svg width="56" height="68" viewBox="0 0 56 68" fill="none" xmlns="http://www.w3.org/2000/svg">
<path d="M21.4656 0.0919729C21.2841 -0.0706933 20.9323 -0.0105288 20.8247 0.216758C19.4891 2.17544 18.0391 4.0851 17.0598 6.25769C16.0065 8.42583 16.5802 11.0107 15.4149 13.1454C14.7537 14.2529 14.2361 15.5475 14.5969 16.8466C11.5222 19.7434 8.85086 23.0524 6.52243 26.5665C3.26172 31.5712 0.632984 37.1799 0.0816917 43.1852C-0.162582 46.1867 0.113064 49.3019 1.28513 52.1006C0.684528 48.0718 1.82073 43.9874 3.56874 40.3708C4.75425 38.0311 6.23333 35.7983 8.18976 34.0246C9.11082 33.1845 10.1798 32.4848 11.3877 32.1395C10.9642 30.8871 10.6347 29.5279 10.9686 28.2132C11.186 27.3085 11.2801 26.3414 11.7754 25.5325C11.9614 25.2807 12.2595 25.4434 12.4813 25.5325C14.1711 26.259 15.3723 27.772 16.179 29.3719C16.3292 28.2756 16.4076 27.0611 17.1629 26.181C18.7114 26.7291 19.3411 28.4271 19.6527 29.8911C19.0364 29.793 18.4134 29.695 17.7859 29.7418C17.6917 29.9981 17.5461 30.2877 17.8352 30.4794C19.5787 30.6019 21.3895 30.9206 22.8528 31.93C23.9017 32.6386 24.9729 33.3695 25.764 34.37C26.573 35.4128 26.5259 36.8078 27.001 37.9821C27.7159 38.8377 28.2381 39.8271 28.7535 40.8076C28.9776 41.2621 29.5984 41.4894 29.5199 42.0777C29.074 43.5506 27.8436 44.6113 26.6133 45.4647C26.2346 46.2758 25.7034 47.1627 24.751 47.3699C23.4602 47.5771 22.1066 47.4813 20.9054 46.9399C19.9619 48.7916 19.7983 50.9441 20.0471 52.9786C20.688 57.9365 23.7582 62.5736 28.2067 64.949C32.4915 67.1996 37.4129 68.3672 42.2625 67.8971C46.2291 67.5405 50.0657 66.1568 53.4519 64.0956C54.3394 63.5474 55.238 63.0037 56 62.2906C52.4121 64.6259 48.1452 65.9874 43.8446 65.9674C40.4539 65.9473 37.0319 64.773 34.5354 62.4533C33.0227 61.074 31.8461 59.3604 30.9564 57.5265C30.3917 56.3478 29.865 55.1266 29.6746 53.8231C29.3205 51.4589 29.5513 49.0478 30.013 46.7148C30.7435 43.2097 31.9649 39.8004 33.677 36.6495C34.4009 35.3103 35.2503 34.0291 36.2923 32.9104C36.9938 33.0909 37.749 33.2068 38.3339 33.6636C39.125 34.214 39.9116 34.8914 40.9178 34.9627C43.1589 35.2323 45.4044 34.829 47.6387 34.6619C49.4091 34.5416 51.1952 33.5678 51.9527 31.9211C52.1544 31.3083 52.9567 31.257 53.2278 30.6866C53.7253 30.0538 53.7971 29.031 54.6755 28.7859C55.1372 28.2355 55.4263 27.5603 55.6975 26.9029C56.2017 25.7888 55.6033 24.3872 54.5411 23.8323C51.0182 21.7957 47.1165 20.4787 43.1634 19.5495C42.2557 19.1997 41.5476 18.4844 40.8685 17.8159C40.3441 16.8934 39.813 15.9374 38.9861 15.2444C37.9709 14.567 36.8997 13.9543 35.7254 13.5821C33.2356 12.7287 30.6875 12.0491 28.1775 11.2513C27.6711 11.0641 27.8302 10.438 28.2358 10.2308C29.1995 10.4335 30.1138 10.8057 31.0707 11.0307C30.3693 9.05867 30.4388 6.9039 29.6051 4.97196C29.0359 3.64166 28.4173 2.31805 27.7002 1.06574C27.4918 1.23064 27.3282 1.43118 27.2139 1.66738C26.1808 3.76199 25.1925 5.90339 24.6546 8.18518C24.4754 7.9824 24.4597 7.70164 24.3812 7.45429C23.8658 5.42654 23.1688 3.44557 22.3397 1.52255C22.0976 1.0234 21.8982 0.466328 21.4656 0.0919729ZM36.8279 17.8048C37.3972 18.119 37.5787 18.812 37.6482 19.4069C36.4985 19.6565 35.071 19.115 34.7012 17.9251C35.3645 17.6599 36.1467 17.5106 36.8279 17.8048Z" fill="#FFFAF5"/>
<path d="M24.9883 36.7076C24.4213 36.2307 23.6302 36.4201 22.987 36.6006C23.1842 37.6568 24.4975 38.1047 25.4521 37.873C25.3558 37.4674 25.2773 37.0307 24.9883 36.7076Z" fill="#FFFAF5"/>
<path d="M7.04644 41.592C7.04195 41.7524 7.02851 42.0711 7.02179 42.2293L7.01955 42.2738C6.97921 42.7752 6.8044 43.2521 6.58702 43.7022C6.82009 44.081 7.10022 44.4264 7.41173 44.745C4.17791 46.8307 2.95207 50.7815 2.29544 54.3579C4.69111 58.9215 8.781 62.3932 13.225 64.9134C14.034 65.3457 14.8318 65.807 15.6901 66.1368C14.2738 65.261 13.3482 63.8171 12.649 62.3464C11.3694 59.5878 10.6299 56.5394 10.7397 53.4911C11.3089 52.9363 11.9767 52.4037 12.1896 51.6037C13.337 51.6862 14.4374 51.138 15.1769 50.2868C15.466 50.5074 15.5579 50.9887 15.8627 51.1291C16.0733 50.2222 16.1764 49.2306 15.7708 48.3593C15.3786 47.4836 14.4934 46.9689 13.6127 46.6792C13.272 45.6609 12.8037 44.5801 11.8333 44.0075C10.7621 43.3189 9.43314 43.3278 8.28125 42.8421C7.7053 42.6215 7.38707 42.0666 7.04644 41.592ZM10.0158 48.0296C9.67517 48.5643 8.69584 48.6223 8.63757 47.8557C8.86392 47.1962 9.89031 47.4101 10.0158 48.0296Z" fill="#FFFAF5"/>
<path d="M43.8198 42.7172C42.7441 41.4805 40.9222 40.8744 39.34 41.4203C37.7242 41.9551 36.5925 43.4214 36.0614 44.9812C35.2075 47.7688 35.342 50.8104 36.2675 53.5646C37.3118 56.5996 39.1943 59.3292 41.59 61.4684C42.4259 60.2941 43.58 59.3961 44.77 58.5961C46.7421 57.3171 48.8442 56.2497 50.8813 55.0798C52.3089 54.1997 53.3823 52.7802 53.8955 51.1959C54.2765 49.9659 54.2832 48.5554 53.6064 47.4234C52.8646 46.1042 51.3497 45.3511 49.8616 45.2798C48.2414 45.1505 46.6256 45.7633 45.3818 46.7794C45.337 45.302 44.8328 43.818 43.8198 42.7172Z" fill="#E4BD94"/>
<path d="M6.67237 42.7595C6.63427 42.4832 6.60514 42.2091 6.5536 41.9373C6.32277 42.5278 6.1659 43.1539 6.58721 43.7021C6.80459 43.252 6.97939 42.7751 7.01973 42.2738L7.02197 42.2292C6.93457 42.3607 6.75977 42.6258 6.67237 42.7595Z" fill="#FFFAF5"/>
<path d="M40.3504 43.1424L41.9312 44.1515C39.5424 45.0933 37.8913 46.8984 37.3644 47.6833C37.3644 45.396 39.355 43.703 40.3504 43.1424Z" fill="white"/>
<path d="M51.4986 46.9009C50.2987 45.8159 47.6107 45.6657 46.4061 47.3273C46.7756 46.9979 48.9185 46.5371 51.4986 46.9009Z" fill="white"/>
</svg>
