<svg width="16" height="17" viewBox="0 0 16 17" fill="none" xmlns="http://www.w3.org/2000/svg">
<path d="M4.25982 0.772705H4.33388C4.49795 0.784477 4.65201 0.85843 4.76451 0.973735C7.17889 3.29886 9.59295 5.62429 12.0076 7.94911C12.1136 8.05023 12.2292 8.15195 12.2798 8.2917C12.3705 8.51598 12.298 8.7822 12.1173 8.9446C9.66701 11.3053 7.21607 13.6655 4.76513 16.0256C4.65295 16.1418 4.49826 16.2146 4.33388 16.2273H4.26263C4.10795 16.2119 3.95576 16.1497 3.84951 16.0374C3.68763 15.8762 3.6367 15.6233 3.72232 15.4147C3.7767 15.2686 3.9017 15.1654 4.01201 15.0588C6.28138 12.8722 8.55232 10.6872 10.8211 8.49998C8.50545 6.26631 6.18576 4.03627 3.86982 1.80261C3.69107 1.63599 3.6292 1.36402 3.72826 1.14277C3.81451 0.934193 4.03013 0.791118 4.25982 0.772705Z" fill="#4E697C" stroke="#4E697C"/>
</svg>
