<svg width="16" height="17" viewBox="0 0 16 17" fill="none" xmlns="http://www.w3.org/2000/svg">
<g clip-path="url(#clip0_1125_1486)">
<path d="M11.7402 16.2273L11.6661 16.2273C11.5021 16.2155 11.348 16.1416 11.2355 16.0263C8.82111 13.7011 6.40705 11.3757 3.99236 9.05089C3.88642 8.94977 3.7708 8.84805 3.72017 8.7083C3.62955 8.48402 3.70205 8.21779 3.88267 8.0554C6.33299 5.69466 8.78393 3.33452 11.2349 0.974383C11.3471 0.858172 11.5017 0.785427 11.6661 0.77275L11.7374 0.77275C11.8921 0.788144 12.0442 0.850325 12.1505 0.962611C12.3124 1.1238 12.3633 1.37675 12.2777 1.58532C12.2233 1.73141 12.0983 1.83465 11.988 1.9412C9.71862 4.12777 7.44768 6.31284 5.17893 8.50002C7.49455 10.7337 9.81424 12.9637 12.1302 15.1974C12.3089 15.364 12.3708 15.636 12.2717 15.8572C12.1855 16.0658 11.9699 16.2089 11.7402 16.2273Z" fill="#4E697C" stroke="#4E697C"/>
</g>
<defs>
<clipPath id="clip0_1125_1486">
<rect width="16" height="17" fill="white" transform="translate(16 17) rotate(-180)"/>
</clipPath>
</defs>
</svg>
