<svg width="153" height="157" viewBox="0 0 153 157" fill="none" xmlns="http://www.w3.org/2000/svg">
<path d="M76.4598 75.3362C63.3567 71.4281 56.59 82.5149 41.3943 89.8324C19.1917 100.418 18.1423 115.538 27.2669 121.903C36.824 128.152 49.277 119.251 60.9662 123.074C72.5395 126.465 77.462 141.375 88.6565 141.621C99.851 141.867 107.568 129.135 95.7998 107.713C88.0497 92.6328 89.2461 79.7927 76.4598 75.3362Z" fill="#E4BD94"/>
<path d="M48.4215 55.4914C52.5326 67.373 49.258 79.3789 41.5866 81.8982C33.9153 84.4174 24.443 76.7544 20.216 64.4401C16.105 52.5584 19.3796 40.5525 27.0509 38.0333C34.8382 35.9467 44.3105 43.6097 48.4215 55.4914Z" fill="#E4BD94"/>
<path d="M110.476 75.9591C99.9541 83.4153 95.5824 94.7878 100.581 101.331C105.581 107.874 117.524 107.456 127.93 99.5671C138.336 91.6784 142.823 80.7385 137.824 74.1954C133.258 67.5363 120.882 68.0704 110.476 75.9591Z" fill="#E4BD94"/>
<path d="M84.1201 39.8981C82.1744 53.4027 74.0787 62.9909 65.3641 61.6165C56.7654 60.6747 51.2405 48.7082 53.1862 35.2036C55.1319 21.699 63.2276 12.1107 71.9422 13.4851C80.6568 14.8596 86.1817 26.8262 84.1201 39.8981Z" fill="#E4BD94"/>
<path d="M90.7876 42.2847C84.6853 54.121 85.3354 66.93 93.3317 70.8154C101.328 74.7007 112.198 68.5424 118.732 56.5902C124.835 44.754 124.185 31.9449 116.188 28.0596C108.192 24.1743 96.8898 30.4485 90.7876 42.2847Z" fill="#E4BD94"/>
</svg>
