<svg width="123" height="130" viewBox="0 0 123 130" fill="none" xmlns="http://www.w3.org/2000/svg">
<path d="M62.5886 61.8352C50.9435 54.669 41.5379 63.6267 24.9661 66.7619C0.780156 71.2407 -4.14661 85.5732 3.01959 94.083C10.6337 102.593 24.966 97.2182 35.2675 103.937C45.5689 110.207 46.4646 125.883 57.2139 129.018C67.9632 132.153 78.7125 121.852 72.89 98.114C69.3069 81.5422 73.7858 69.4492 62.5886 61.8352Z" fill="#4E697C"/>
<path d="M40.642 35.4097C41.5378 47.9505 35.2674 58.6998 27.2054 59.1477C19.1434 59.5956 11.9772 49.7421 11.0815 36.7533C10.1857 24.2125 16.4561 13.4632 24.5181 13.0153C32.5801 13.0153 39.7462 22.8689 40.642 35.4097Z" fill="#4E697C"/>
<path d="M95.2843 71.2409C83.1913 75.7198 76.0251 85.5733 79.1603 93.1874C82.2955 100.801 93.9406 103.489 106.034 98.562C118.127 93.6352 125.293 84.2297 122.158 76.6156C119.47 69.0015 107.377 66.3142 95.2843 71.2409Z" fill="#4E697C"/>
<path d="M79.1598 29.5873C73.7852 42.1281 63.4838 49.2943 55.4218 45.7112C47.3598 42.576 45.1204 29.5873 50.4951 17.0464C55.8697 4.50554 66.1711 -2.66068 74.2331 0.92242C82.2951 4.50552 84.5345 17.4943 79.1598 29.5873Z" fill="#4E697C"/>
<path d="M84.9825 33.6182C76.0248 43.4717 73.3374 56.0126 80.0557 61.8351C86.774 67.6577 98.867 64.5225 108.273 54.6689C117.23 44.8154 119.918 32.2745 113.199 26.452C106.481 20.6294 93.9403 23.7647 84.9825 33.6182Z" fill="#4E697C"/>
</svg>
