<svg width="40" height="40" viewBox="0 0 40 40" fill="none" xmlns="http://www.w3.org/2000/svg">
<g clip-path="url(#clip0_1123_5365)">
<path d="M19.8401 19.2316C16.447 19.31 15.6963 22.4455 12.6669 25.335C8.23251 29.5318 9.14019 33.1826 11.7815 33.9885C14.5162 34.7339 16.7768 31.6801 19.8296 31.6896C22.8219 31.6058 25.1239 34.7508 27.7865 33.9534C30.449 33.156 31.2983 29.5593 26.882 25.3996C23.8992 22.4306 23.2004 19.3068 19.8401 19.2316Z" fill="#4E697C"/>
<path d="M11.7018 16.6878C13.5808 19.1796 13.725 22.2652 12.1058 23.4464C10.4867 24.6277 7.66404 23.5419 5.72465 20.9568C3.8457 18.4649 3.70148 15.3793 5.32063 14.1981C7.00022 13.1102 9.82288 14.1959 11.7018 16.6878Z" fill="#4E697C"/>
<path d="M27.921 16.779C26.006 19.344 25.8427 22.3639 27.5234 23.5271C29.2041 24.6903 31.9928 23.6787 33.8473 21.0204C35.7019 18.3621 35.9256 15.4355 34.2449 14.2723C32.6576 13.0487 29.7756 14.1207 27.921 16.779Z" fill="#4E697C"/>
<path d="M18.9407 10.2768C19.5133 13.6148 18.3342 16.4979 16.1711 16.8394C14.0684 17.2741 11.8491 14.8703 11.2765 11.5323C10.7039 8.19434 11.8829 5.31124 14.0461 4.96979C16.2092 4.62835 18.4285 7.03217 18.9407 10.2768Z" fill="#4E697C"/>
<path d="M20.6978 10.3311C20.1612 13.5927 21.2937 16.5681 23.4791 16.8745C25.6645 17.1809 27.7608 14.8958 28.3906 11.5738C28.9271 8.31212 27.7947 5.33677 25.6093 5.03034C23.4239 4.7239 21.2343 7.06941 20.6978 10.3311Z" fill="#4E697C"/>
</g>
<defs>
<clipPath id="clip0_1123_5365">
<rect width="40" height="40" fill="white"/>
</clipPath>
</defs>
</svg>
