<svg width="65" height="65" viewBox="0 0 65 65" fill="none" xmlns="http://www.w3.org/2000/svg">
<path d="M31.7205 0H33.2541C38.5087 0.13457 43.7404 1.52217 48.3234 4.11074C54.2522 7.41025 59.1068 12.6166 61.9607 18.7751C63.8968 22.882 64.9111 27.4054 65 31.9414V33.2376C64.8756 37.9933 63.7343 42.7248 61.6002 46.9803C59.4674 51.2396 56.4002 55.0329 52.6589 57.9833C48.8427 61.0175 44.3346 63.1808 39.5713 64.2256C37.5045 64.7004 35.3869 64.92 33.2693 65H31.7586C26.1549 64.8629 20.5918 63.2722 15.7879 60.3751C10.0725 56.9436 5.44883 51.722 2.75869 45.6193C1.0334 41.7409 0.119336 37.5185 0 33.2782V31.9401C0.0863281 27.1451 1.22891 22.3691 3.36807 18.0743C5.97188 12.8362 10.0064 8.31289 14.9373 5.16191C19.9062 1.9208 25.7956 0.154883 31.7205 0ZM49.2527 17.1501C37.4029 21.4208 25.5531 25.6915 13.7021 29.9597C13.3453 30.1006 12.9492 30.1768 12.6382 30.4154C12.1329 30.809 12.0428 31.6126 12.449 32.1077C12.7283 32.4987 13.2298 32.5736 13.6602 32.6904C16.6423 33.5017 19.6206 34.3256 22.6015 35.1419C23.7225 38.4262 24.8409 41.7104 25.9594 44.996C26.0901 45.4162 26.245 45.8605 26.6056 46.1437C27.2213 46.6819 28.228 46.6578 28.8171 46.0903C30.4548 44.558 32.076 43.0092 33.7124 41.4743C36.9345 43.6554 40.1489 45.8504 43.3773 48.0238C44.4577 48.7424 46.1767 48.1444 46.4331 46.8317C48.5469 37.4905 50.6657 28.1506 52.7719 18.8081C52.9979 17.8902 52.3034 16.9533 51.4135 16.7502C50.6645 16.5229 49.9434 16.9114 49.2527 17.1501Z" fill="#1C8ADB"/>
<path d="M44.9859 22.3855C45.2868 22.1392 45.8022 22.4414 45.6854 22.8273C45.5623 23.0762 45.2995 23.2158 45.0989 23.3974C39.5104 27.9639 33.9219 32.5291 28.336 37.0994C28.1468 37.2416 28.0047 37.4498 27.9818 37.6897C27.7342 39.5585 27.5565 41.4387 27.2937 43.3049C27.1008 43.3848 26.9865 43.329 26.9509 43.1373C26.061 40.47 25.1723 37.8027 24.2722 35.1392C24.0907 34.7432 24.2481 34.2341 24.6442 34.0411C31.4222 30.1525 38.2028 26.2665 44.9859 22.3855Z" fill="#1C8ADB"/>
<path d="M49.2528 17.1501C49.9434 16.9114 50.6645 16.523 51.4135 16.7502C52.3035 16.9533 52.9979 17.8902 52.7719 18.8081C50.6658 28.1506 48.5469 37.4905 46.4332 46.8317C46.1767 48.1444 44.4578 48.7424 43.3774 48.0238C40.149 45.8504 36.9345 43.6554 33.7125 41.4743C32.076 43.0092 30.4548 44.558 28.8171 46.0903C28.2281 46.6578 27.2213 46.6819 26.6056 46.1437C26.2451 45.8606 26.0902 45.4162 25.9594 44.996C24.841 41.7105 23.7225 38.4262 22.6015 35.1419C19.6207 34.3256 16.6423 33.5017 13.6602 32.6904C13.2298 32.5736 12.7284 32.4987 12.4491 32.1077C12.0428 31.6126 12.133 30.809 12.6382 30.4154C12.9493 30.1768 13.3454 30.1006 13.7021 29.9597C25.5532 25.6915 37.403 21.4208 49.2528 17.1501ZM44.9859 22.3856C38.2028 26.2666 31.4222 30.1526 24.6442 34.0412C24.2481 34.2342 24.0907 34.7433 24.2722 35.1394C25.1723 37.8028 26.061 40.4701 26.9509 43.1374C26.9865 43.3291 27.1007 43.385 27.2937 43.305C27.5565 41.4388 27.7342 39.5586 27.9818 37.6898C28.0046 37.4499 28.1468 37.2417 28.336 37.0995C33.9219 32.5292 39.5104 27.964 45.0989 23.3975C45.2995 23.2159 45.5623 23.0763 45.6854 22.8274C45.8022 22.4415 45.2868 22.1394 44.9859 22.3856Z" fill="white"/>
</svg>
