<svg width="65" height="65" viewBox="0 0 65 65" fill="none" xmlns="http://www.w3.org/2000/svg">
<path d="M31.8995 0H33.3468C38.6966 0.157422 44.0172 1.60469 48.6497 4.29736C55.0799 7.96504 60.1821 13.9001 62.8329 20.814C64.1634 24.2315 64.8591 27.8776 65 31.5377V32.9761C64.9137 38.138 63.5997 43.2758 61.1546 47.8258C58.877 52.0914 55.6321 55.8378 51.7309 58.6955C47.4322 61.8604 42.3389 63.9336 37.0525 64.6763C35.9379 64.8502 34.8118 64.9035 33.6908 65H31.784C26.5789 64.8629 21.4043 63.4956 16.8441 60.9743C13.2361 58.9964 10.0153 56.3177 7.40137 53.1413C4.17295 49.2261 1.88652 44.5428 0.78584 39.5891C0.319922 37.5388 0.0825195 35.444 0 33.3455V31.5415C0.1625 27.0169 1.23145 22.5228 3.20049 18.4425C5.94775 12.6788 10.4495 7.77461 15.9504 4.53477C20.7556 1.67324 26.311 0.114258 31.8995 0ZM33.6134 15.3842C33.5791 15.7155 33.5816 16.0481 33.5867 16.3808C33.5969 23.1067 33.6032 29.8314 33.6273 36.5574C33.6857 37.9069 33.5067 39.2704 33.0649 40.5488C32.6396 41.6965 31.8894 42.7857 30.7734 43.3494C29.7794 43.8445 28.614 43.9575 27.5298 43.7506C26.2184 43.4967 25.0364 42.6981 24.2798 41.6013C23.4089 40.4714 23.0966 38.9365 23.4686 37.5565C23.7999 36.2692 24.7076 35.1419 25.901 34.5528C27.1032 33.9523 28.4273 33.6705 29.7261 33.3633C29.7426 31.445 29.7299 29.5268 29.7324 27.6085C27.1781 27.7596 24.5388 28.2725 22.411 29.7743C21.1174 30.7112 20.0116 31.9135 19.1953 33.2871C18.1848 34.9896 17.7366 37.0005 17.856 38.9708C18.0096 41.5061 18.8716 44.0426 20.5169 46.0027C22.1102 47.9223 24.4372 49.2261 26.9191 49.5231C29.2817 49.8304 31.7243 49.2185 33.7188 47.9312C35.8858 46.5486 37.6048 44.4539 38.4566 42.0215C38.9835 40.5564 39.2107 38.9975 39.2399 37.4461C39.3313 33.8279 39.2933 30.2098 39.2844 26.5929C41.6495 27.9919 44.332 29.2271 47.1517 28.8742C47.1504 27.0626 47.1491 25.251 47.1529 23.4381C45.2486 23.2667 43.3037 22.67 41.8882 21.3332C40.2365 19.806 39.4875 17.5652 39.198 15.388C37.3369 15.3829 35.4745 15.3905 33.6134 15.3842Z" fill="#FF0B53"/>
</svg>
