<svg width="65" height="65" viewBox="0 0 65 65" fill="none" xmlns="http://www.w3.org/2000/svg">
<path d="M31.69 0H33.296C38.6014 0.144727 43.8813 1.56152 48.4897 4.20596C54.6292 7.66416 59.5854 13.1803 62.3594 19.6587C63.9971 23.419 64.8553 27.4955 65 31.5897V33.3798C64.8502 37.9907 63.7622 42.5775 61.7271 46.7238C59.5905 51.0885 56.4738 54.9745 52.6576 57.9858C48.8401 61.0187 44.3333 63.1808 39.5687 64.2256C37.5146 64.6991 35.4098 64.9162 33.3074 65H31.7154C26.4685 64.8604 21.2583 63.4588 16.6778 60.8905C9.78428 57.0527 4.36719 50.634 1.79385 43.1717C0.694434 40.0372 0.120605 36.7326 0 33.4166V31.6126C0.0558594 30.55 0.114258 29.4861 0.252637 28.4299C0.964844 22.6459 3.28682 17.0727 6.89355 12.496C9.20664 9.51768 12.0567 6.96465 15.2471 4.96133C20.1437 1.85352 25.8984 0.158691 31.69 0ZM21.3307 20.8305C18.7345 23.3416 17.0257 26.7516 16.5864 30.338C16.1459 33.7924 16.8645 37.3813 18.6075 40.3965C17.8496 43.1818 17.0828 45.9646 16.3211 48.7487C19.1687 48.0035 22.0175 47.2596 24.8625 46.5093C26.829 47.5693 29.0101 48.2295 31.2368 48.4098C34.7813 48.717 38.4173 47.7953 41.3842 45.8313C44.3587 43.8877 46.6604 40.9348 47.8067 37.5705C48.9976 34.1161 48.9582 30.2542 47.7014 26.8227C46.3633 23.1309 43.6109 19.9862 40.1489 18.1378C37.3953 16.6524 34.1974 16.0342 31.0845 16.3198C27.4435 16.6423 23.9383 18.2698 21.3307 20.8305Z" fill="#67D449"/>
<path d="M22.75 23.2681C24.879 20.9588 27.8421 19.4316 30.9664 19.0685C33.979 18.7003 37.1147 19.3833 39.6805 21.0109C42.5648 22.8199 44.7294 25.7564 45.547 29.0673C46.3544 32.2348 45.9507 35.6955 44.4158 38.5837C42.8657 41.5405 40.173 43.8802 37.0208 44.9847C34.2735 45.9622 31.2051 45.9965 28.435 45.0926C27.314 44.7359 26.2615 44.2001 25.2573 43.5946C23.5688 44.0402 21.8804 44.482 20.1919 44.9225C20.6413 43.2759 21.0933 41.6306 21.5427 39.984C20.0611 37.7826 19.1953 35.1623 19.1826 32.5027C19.1229 29.1168 20.4382 25.7386 22.75 23.2681ZM26.5853 24.9502C26.0533 25.0505 25.7055 25.4974 25.3754 25.8859C24.4753 26.9662 24.1884 28.4782 24.507 29.8341C24.8663 31.3817 25.8019 32.6982 26.7579 33.9347C28.0643 35.6168 29.6182 37.1301 31.4387 38.2486C32.6358 38.9811 33.96 39.4686 35.2917 39.8888C36.0788 40.1287 36.9205 40.1402 37.7305 40.017C38.5684 39.8444 39.3377 39.3962 39.9598 38.8148C40.4828 38.3463 40.625 37.6189 40.7164 36.9549C40.7342 36.6236 40.8319 36.1488 40.4409 35.9939C39.4266 35.4746 38.4021 34.9757 37.3648 34.5034C37.0627 34.3828 36.6463 34.1607 36.381 34.4692C35.8935 35.0836 35.4288 35.7209 34.8804 36.2846C34.5274 36.6096 34.0691 36.2529 33.7111 36.1183C31.5174 35.1725 29.6893 33.4459 28.5606 31.3487C28.4235 30.8942 28.9326 30.6212 29.1548 30.2962C29.5242 29.8379 30.0841 29.2514 29.7895 28.623C29.3668 27.6365 28.9631 26.6425 28.5518 25.6497C28.4223 25.3654 28.2623 24.9972 27.9132 24.9464C27.4727 24.921 27.0245 24.888 26.5853 24.9502Z" fill="#67D449"/>
</svg>
