<svg width="65" height="65" viewBox="0 0 65 65" fill="none" xmlns="http://www.w3.org/2000/svg">
<path d="M31.6735 0H33.3138C38.6128 0.148535 43.8839 1.56533 48.4885 4.20342C54.567 7.62988 59.4902 13.0711 62.2756 19.4708C64.0225 23.4152 64.9276 27.7202 65 32.0315V33.3112C64.8642 37.9158 63.7851 42.4988 61.7665 46.6438C59.786 50.714 56.9601 54.374 53.5006 57.2939C49.885 60.3649 45.5939 62.6437 41.0097 63.8714C38.5049 64.5658 35.9138 64.9048 33.3201 65H31.6862C26.1701 64.8477 20.6959 63.2976 15.9517 60.4729C11.0881 57.5834 6.98496 53.4168 4.20596 48.4859C1.51328 43.7823 0.0799805 38.3817 0 32.9672V31.9046C0.0774414 28.2217 0.75791 24.5489 2.05537 21.0996C4.48652 14.5895 9.07461 8.90957 14.9284 5.16699C19.8872 1.92969 25.7626 0.166309 31.6735 0ZM27.592 21.1352C25.3398 21.191 23.0864 21.2443 20.8406 21.4271C19.872 21.5008 18.9008 21.8321 18.1695 22.4859C17.1818 23.3149 16.8454 24.6365 16.6004 25.8477C16.316 28.096 16.2233 30.3659 16.25 32.6308C16.2221 34.7128 16.3312 36.7948 16.561 38.8642C16.6842 39.7516 16.9292 40.6275 17.3253 41.4337C17.8141 42.4227 18.8081 43.0854 19.8631 43.3418C20.965 43.6046 22.1025 43.6592 23.2312 43.7125C30.1272 43.9842 37.0398 44.0223 43.9309 43.5817C45.3261 43.5271 46.7733 42.9127 47.5287 41.6927C48.1432 40.611 48.4212 39.3669 48.5126 38.1367C48.8033 35.2511 48.7894 32.3438 48.703 29.448C48.5558 27.5577 48.5926 25.5849 47.7991 23.8202C47.3713 22.7627 46.4077 21.9832 45.3324 21.6493C44.3358 21.3497 43.2809 21.3853 42.2538 21.3002C37.3699 21.078 32.4797 21.0146 27.592 21.1352Z" fill="#EA412C"/>
<path d="M29.1436 27.5857C32.0749 29.1002 34.9961 30.6389 37.9249 32.1598C35.005 33.6896 32.0736 35.1991 29.1461 36.7149C29.1436 33.6718 29.1423 30.6288 29.1436 27.5857Z" fill="#EA412C"/>
</svg>
